<mxfile host="65bd71144e">
    <diagram id="R2lEEEUBdFMjLlhIrx00" name="Page-1">
        <mxGraphModel dx="625" dy="1655" grid="1" gridSize="10" guides="1" tooltips="1" connect="1" arrows="1" fold="1" page="1" pageScale="1" pageWidth="850" pageHeight="1100" math="0" shadow="0" extFonts="Permanent Marker^https://fonts.googleapis.com/css?family=Permanent+Marker">
            <root>
                <mxCell id="0"/>
                <mxCell id="1" parent="0"/>
                <mxCell id="5NvtxKx6k78RyNqUAEc0-30" value="Product (Book)" style="shape=table;startSize=30;container=1;collapsible=1;childLayout=tableLayout;fixedRows=1;rowLines=0;fontStyle=1;align=center;resizeLast=1;pointerEvents=0;fontFamily=Helvetica;fontSize=12;fontColor=default;strokeColor=default;fillColor=none;" parent="1" vertex="1">
                    <mxGeometry x="280" width="190" height="270" as="geometry"/>
                </mxCell>
                <mxCell id="5NvtxKx6k78RyNqUAEc0-31" value="" style="shape=partialRectangle;collapsible=0;dropTarget=0;pointerEvents=0;fillColor=none;top=0;left=0;bottom=1;right=0;points=[[0,0.5],[1,0.5]];portConstraint=eastwest;fontFamily=Helvetica;fontSize=12;fontColor=default;strokeColor=default;" parent="5NvtxKx6k78RyNqUAEc0-30" vertex="1">
                    <mxGeometry y="30" width="190" height="30" as="geometry"/>
                </mxCell>
                <mxCell id="5NvtxKx6k78RyNqUAEc0-32" value="PK" style="shape=partialRectangle;connectable=0;fillColor=none;top=0;left=0;bottom=0;right=0;fontStyle=1;overflow=hidden;pointerEvents=0;fontFamily=Helvetica;fontSize=12;fontColor=default;strokeColor=default;" parent="5NvtxKx6k78RyNqUAEc0-31" vertex="1">
                    <mxGeometry width="50" height="30" as="geometry">
                        <mxRectangle width="50" height="30" as="alternateBounds"/>
                    </mxGeometry>
                </mxCell>
                <mxCell id="5NvtxKx6k78RyNqUAEc0-33" value="pID (int auto increase)" style="shape=partialRectangle;connectable=0;fillColor=none;top=0;left=0;bottom=0;right=0;align=left;spacingLeft=6;fontStyle=5;overflow=hidden;pointerEvents=0;fontFamily=Helvetica;fontSize=12;fontColor=default;strokeColor=default;" parent="5NvtxKx6k78RyNqUAEc0-31" vertex="1">
                    <mxGeometry x="50" width="140" height="30" as="geometry">
                        <mxRectangle width="140" height="30" as="alternateBounds"/>
                    </mxGeometry>
                </mxCell>
                <mxCell id="5NvtxKx6k78RyNqUAEc0-34" value="" style="shape=partialRectangle;collapsible=0;dropTarget=0;pointerEvents=0;fillColor=none;top=0;left=0;bottom=0;right=0;points=[[0,0.5],[1,0.5]];portConstraint=eastwest;fontFamily=Helvetica;fontSize=12;fontColor=default;strokeColor=default;labelBackgroundColor=none;" parent="5NvtxKx6k78RyNqUAEc0-30" vertex="1">
                    <mxGeometry y="60" width="190" height="30" as="geometry"/>
                </mxCell>
                <mxCell id="5NvtxKx6k78RyNqUAEc0-35" value="" style="shape=partialRectangle;connectable=0;fillColor=none;top=0;left=0;bottom=0;right=0;editable=1;overflow=hidden;pointerEvents=0;fontFamily=Helvetica;fontSize=12;fontColor=default;strokeColor=default;" parent="5NvtxKx6k78RyNqUAEc0-34" vertex="1">
                    <mxGeometry width="50" height="30" as="geometry">
                        <mxRectangle width="50" height="30" as="alternateBounds"/>
                    </mxGeometry>
                </mxCell>
                <mxCell id="5NvtxKx6k78RyNqUAEc0-36" value="(char) book_name" style="shape=partialRectangle;connectable=0;fillColor=none;top=0;left=0;bottom=0;right=0;align=left;spacingLeft=6;overflow=hidden;pointerEvents=0;fontFamily=Helvetica;fontSize=12;fontColor=default;strokeColor=default;" parent="5NvtxKx6k78RyNqUAEc0-34" vertex="1">
                    <mxGeometry x="50" width="140" height="30" as="geometry">
                        <mxRectangle width="140" height="30" as="alternateBounds"/>
                    </mxGeometry>
                </mxCell>
                <mxCell id="5NvtxKx6k78RyNqUAEc0-153" value="" style="shape=partialRectangle;collapsible=0;dropTarget=0;pointerEvents=0;fillColor=none;top=0;left=0;bottom=0;right=0;points=[[0,0.5],[1,0.5]];portConstraint=eastwest;fontFamily=Helvetica;fontSize=12;fontColor=default;strokeColor=default;" parent="5NvtxKx6k78RyNqUAEc0-30" vertex="1">
                    <mxGeometry y="90" width="190" height="30" as="geometry"/>
                </mxCell>
                <mxCell id="5NvtxKx6k78RyNqUAEc0-154" value="FK" style="shape=partialRectangle;connectable=0;fillColor=none;top=0;left=0;bottom=0;right=0;editable=1;overflow=hidden;pointerEvents=0;fontFamily=Helvetica;fontSize=12;fontColor=default;strokeColor=default;" parent="5NvtxKx6k78RyNqUAEc0-153" vertex="1">
                    <mxGeometry width="50" height="30" as="geometry">
                        <mxRectangle width="50" height="30" as="alternateBounds"/>
                    </mxGeometry>
                </mxCell>
                <mxCell id="5NvtxKx6k78RyNqUAEc0-155" value="catID" style="shape=partialRectangle;connectable=0;fillColor=#fff2cc;top=0;left=0;bottom=0;right=0;align=left;spacingLeft=6;overflow=hidden;pointerEvents=0;fontFamily=Helvetica;fontSize=12;strokeColor=#d6b656;" parent="5NvtxKx6k78RyNqUAEc0-153" vertex="1">
                    <mxGeometry x="50" width="140" height="30" as="geometry">
                        <mxRectangle width="140" height="30" as="alternateBounds"/>
                    </mxGeometry>
                </mxCell>
                <mxCell id="uKTpV5TkBBqyouTNL6bu-1" value="" style="shape=partialRectangle;collapsible=0;dropTarget=0;pointerEvents=0;fillColor=none;top=0;left=0;bottom=0;right=0;points=[[0,0.5],[1,0.5]];portConstraint=eastwest;fontFamily=Helvetica;fontSize=12;fontColor=default;strokeColor=default;" parent="5NvtxKx6k78RyNqUAEc0-30" vertex="1">
                    <mxGeometry y="120" width="190" height="30" as="geometry"/>
                </mxCell>
                <mxCell id="uKTpV5TkBBqyouTNL6bu-2" value="" style="shape=partialRectangle;connectable=0;fillColor=none;top=0;left=0;bottom=0;right=0;editable=1;overflow=hidden;pointerEvents=0;fontFamily=Helvetica;fontSize=12;fontColor=default;strokeColor=default;" parent="uKTpV5TkBBqyouTNL6bu-1" vertex="1">
                    <mxGeometry width="50" height="30" as="geometry">
                        <mxRectangle width="50" height="30" as="alternateBounds"/>
                    </mxGeometry>
                </mxCell>
                <mxCell id="uKTpV5TkBBqyouTNL6bu-3" value="(int) book_img" style="shape=partialRectangle;connectable=0;fillColor=none;top=0;left=0;bottom=0;right=0;align=left;spacingLeft=6;overflow=hidden;pointerEvents=0;fontFamily=Helvetica;fontSize=12;fontColor=default;strokeColor=default;" parent="uKTpV5TkBBqyouTNL6bu-1" vertex="1">
                    <mxGeometry x="50" width="140" height="30" as="geometry">
                        <mxRectangle width="140" height="30" as="alternateBounds"/>
                    </mxGeometry>
                </mxCell>
                <mxCell id="5NvtxKx6k78RyNqUAEc0-37" value="" style="shape=partialRectangle;collapsible=0;dropTarget=0;pointerEvents=0;fillColor=none;top=0;left=0;bottom=0;right=0;points=[[0,0.5],[1,0.5]];portConstraint=eastwest;fontFamily=Helvetica;fontSize=12;fontColor=default;strokeColor=default;" parent="5NvtxKx6k78RyNqUAEc0-30" vertex="1">
                    <mxGeometry y="150" width="190" height="30" as="geometry"/>
                </mxCell>
                <mxCell id="5NvtxKx6k78RyNqUAEc0-38" value="" style="shape=partialRectangle;connectable=0;fillColor=none;top=0;left=0;bottom=0;right=0;editable=1;overflow=hidden;pointerEvents=0;fontFamily=Helvetica;fontSize=12;fontColor=default;strokeColor=default;" parent="5NvtxKx6k78RyNqUAEc0-37" vertex="1">
                    <mxGeometry width="50" height="30" as="geometry">
                        <mxRectangle width="50" height="30" as="alternateBounds"/>
                    </mxGeometry>
                </mxCell>
                <mxCell id="5NvtxKx6k78RyNqUAEc0-39" value="(int) book_price" style="shape=partialRectangle;connectable=0;fillColor=none;top=0;left=0;bottom=0;right=0;align=left;spacingLeft=6;overflow=hidden;pointerEvents=0;fontFamily=Helvetica;fontSize=12;fontColor=default;strokeColor=default;" parent="5NvtxKx6k78RyNqUAEc0-37" vertex="1">
                    <mxGeometry x="50" width="140" height="30" as="geometry">
                        <mxRectangle width="140" height="30" as="alternateBounds"/>
                    </mxGeometry>
                </mxCell>
                <mxCell id="5NvtxKx6k78RyNqUAEc0-40" value="" style="shape=partialRectangle;collapsible=0;dropTarget=0;pointerEvents=0;fillColor=none;top=0;left=0;bottom=0;right=0;points=[[0,0.5],[1,0.5]];portConstraint=eastwest;fontFamily=Helvetica;fontSize=12;fontColor=default;strokeColor=default;" parent="5NvtxKx6k78RyNqUAEc0-30" vertex="1">
                    <mxGeometry y="180" width="190" height="30" as="geometry"/>
                </mxCell>
                <mxCell id="5NvtxKx6k78RyNqUAEc0-41" value="" style="shape=partialRectangle;connectable=0;fillColor=none;top=0;left=0;bottom=0;right=0;editable=1;overflow=hidden;pointerEvents=0;fontFamily=Helvetica;fontSize=12;fontColor=default;strokeColor=default;" parent="5NvtxKx6k78RyNqUAEc0-40" vertex="1">
                    <mxGeometry width="50" height="30" as="geometry">
                        <mxRectangle width="50" height="30" as="alternateBounds"/>
                    </mxGeometry>
                </mxCell>
                <mxCell id="5NvtxKx6k78RyNqUAEc0-42" value="(int) book_stock" style="shape=partialRectangle;connectable=0;fillColor=none;top=0;left=0;bottom=0;right=0;align=left;spacingLeft=6;overflow=hidden;pointerEvents=0;fontFamily=Helvetica;fontSize=12;fontColor=default;strokeColor=default;" parent="5NvtxKx6k78RyNqUAEc0-40" vertex="1">
                    <mxGeometry x="50" width="140" height="30" as="geometry">
                        <mxRectangle width="140" height="30" as="alternateBounds"/>
                    </mxGeometry>
                </mxCell>
                <mxCell id="5NvtxKx6k78RyNqUAEc0-133" value="" style="shape=partialRectangle;collapsible=0;dropTarget=0;pointerEvents=0;fillColor=none;top=0;left=0;bottom=0;right=0;points=[[0,0.5],[1,0.5]];portConstraint=eastwest;fontFamily=Helvetica;fontSize=12;fontColor=default;strokeColor=default;" parent="5NvtxKx6k78RyNqUAEc0-30" vertex="1">
                    <mxGeometry y="210" width="190" height="30" as="geometry"/>
                </mxCell>
                <mxCell id="5NvtxKx6k78RyNqUAEc0-134" value="" style="shape=partialRectangle;connectable=0;fillColor=none;top=0;left=0;bottom=0;right=0;editable=1;overflow=hidden;pointerEvents=0;fontFamily=Helvetica;fontSize=12;fontColor=default;strokeColor=default;" parent="5NvtxKx6k78RyNqUAEc0-133" vertex="1">
                    <mxGeometry width="50" height="30" as="geometry">
                        <mxRectangle width="50" height="30" as="alternateBounds"/>
                    </mxGeometry>
                </mxCell>
                <mxCell id="5NvtxKx6k78RyNqUAEc0-135" value="(float) book_star" style="shape=partialRectangle;connectable=0;top=0;left=0;bottom=0;right=0;align=left;spacingLeft=6;overflow=hidden;pointerEvents=0;fontFamily=Helvetica;fontSize=12;" parent="5NvtxKx6k78RyNqUAEc0-133" vertex="1">
                    <mxGeometry x="50" width="140" height="30" as="geometry">
                        <mxRectangle width="140" height="30" as="alternateBounds"/>
                    </mxGeometry>
                </mxCell>
                <mxCell id="5NvtxKx6k78RyNqUAEc0-114" value="" style="shape=partialRectangle;collapsible=0;dropTarget=0;pointerEvents=0;fillColor=none;top=0;left=0;bottom=0;right=0;points=[[0,0.5],[1,0.5]];portConstraint=eastwest;fontFamily=Helvetica;fontSize=12;fontColor=default;strokeColor=default;" parent="5NvtxKx6k78RyNqUAEc0-30" vertex="1">
                    <mxGeometry y="240" width="190" height="30" as="geometry"/>
                </mxCell>
                <mxCell id="5NvtxKx6k78RyNqUAEc0-115" value="" style="shape=partialRectangle;connectable=0;fillColor=none;top=0;left=0;bottom=0;right=0;editable=1;overflow=hidden;pointerEvents=0;fontFamily=Helvetica;fontSize=12;fontColor=default;strokeColor=default;" parent="5NvtxKx6k78RyNqUAEc0-114" vertex="1">
                    <mxGeometry width="50" height="30" as="geometry">
                        <mxRectangle width="50" height="30" as="alternateBounds"/>
                    </mxGeometry>
                </mxCell>
                <mxCell id="5NvtxKx6k78RyNqUAEc0-116" value="(char) book_description" style="shape=partialRectangle;connectable=0;top=0;left=0;bottom=0;right=0;align=left;spacingLeft=6;overflow=hidden;pointerEvents=0;fontFamily=Helvetica;fontSize=12;" parent="5NvtxKx6k78RyNqUAEc0-114" vertex="1">
                    <mxGeometry x="50" width="140" height="30" as="geometry">
                        <mxRectangle width="140" height="30" as="alternateBounds"/>
                    </mxGeometry>
                </mxCell>
                <mxCell id="5NvtxKx6k78RyNqUAEc0-120" value="Author (Tác giả)" style="shape=table;startSize=30;container=1;collapsible=1;childLayout=tableLayout;fixedRows=1;rowLines=0;fontStyle=1;align=center;resizeLast=1;labelBackgroundColor=none;pointerEvents=0;fontFamily=Helvetica;fontSize=12;fontColor=default;strokeColor=default;fillColor=none;" parent="1" vertex="1">
                    <mxGeometry width="180" height="160" as="geometry"/>
                </mxCell>
                <mxCell id="5NvtxKx6k78RyNqUAEc0-121" value="" style="shape=partialRectangle;collapsible=0;dropTarget=0;pointerEvents=0;fillColor=none;top=0;left=0;bottom=1;right=0;points=[[0,0.5],[1,0.5]];portConstraint=eastwest;labelBackgroundColor=none;fontFamily=Helvetica;fontSize=12;fontColor=default;strokeColor=default;" parent="5NvtxKx6k78RyNqUAEc0-120" vertex="1">
                    <mxGeometry y="30" width="180" height="30" as="geometry"/>
                </mxCell>
                <mxCell id="5NvtxKx6k78RyNqUAEc0-122" value="PK" style="shape=partialRectangle;connectable=0;fillColor=none;top=0;left=0;bottom=0;right=0;fontStyle=1;overflow=hidden;labelBackgroundColor=none;pointerEvents=0;fontFamily=Helvetica;fontSize=12;fontColor=default;strokeColor=default;" parent="5NvtxKx6k78RyNqUAEc0-121" vertex="1">
                    <mxGeometry width="30" height="30" as="geometry">
                        <mxRectangle width="30" height="30" as="alternateBounds"/>
                    </mxGeometry>
                </mxCell>
                <mxCell id="5NvtxKx6k78RyNqUAEc0-123" value="auID" style="shape=partialRectangle;connectable=0;fillColor=none;top=0;left=0;bottom=0;right=0;align=left;spacingLeft=6;fontStyle=5;overflow=hidden;labelBackgroundColor=none;pointerEvents=0;fontFamily=Helvetica;fontSize=12;fontColor=default;strokeColor=default;" parent="5NvtxKx6k78RyNqUAEc0-121" vertex="1">
                    <mxGeometry x="30" width="150" height="30" as="geometry">
                        <mxRectangle width="150" height="30" as="alternateBounds"/>
                    </mxGeometry>
                </mxCell>
                <mxCell id="xDhQ3LMMEN892zh7dAkD-1" value="" style="shape=partialRectangle;collapsible=0;dropTarget=0;pointerEvents=0;fillColor=none;top=0;left=0;bottom=0;right=0;points=[[0,0.5],[1,0.5]];portConstraint=eastwest;labelBackgroundColor=none;fontFamily=Helvetica;fontSize=12;fontColor=default;strokeColor=default;" parent="5NvtxKx6k78RyNqUAEc0-120" vertex="1">
                    <mxGeometry y="60" width="180" height="30" as="geometry"/>
                </mxCell>
                <mxCell id="xDhQ3LMMEN892zh7dAkD-2" value="FK" style="shape=partialRectangle;connectable=0;fillColor=none;top=0;left=0;bottom=0;right=0;editable=1;overflow=hidden;labelBackgroundColor=none;pointerEvents=0;fontFamily=Helvetica;fontSize=12;fontColor=default;strokeColor=default;" parent="xDhQ3LMMEN892zh7dAkD-1" vertex="1">
                    <mxGeometry width="30" height="30" as="geometry">
                        <mxRectangle width="30" height="30" as="alternateBounds"/>
                    </mxGeometry>
                </mxCell>
                <mxCell id="xDhQ3LMMEN892zh7dAkD-3" value="pID" style="shape=partialRectangle;connectable=0;top=0;left=0;bottom=0;right=0;align=left;spacingLeft=6;overflow=hidden;labelBackgroundColor=none;pointerEvents=0;fontFamily=Helvetica;fontSize=12;fillColor=#fff2cc;strokeColor=#d6b656;" parent="xDhQ3LMMEN892zh7dAkD-1" vertex="1">
                    <mxGeometry x="30" width="150" height="30" as="geometry">
                        <mxRectangle width="150" height="30" as="alternateBounds"/>
                    </mxGeometry>
                </mxCell>
                <mxCell id="5NvtxKx6k78RyNqUAEc0-124" value="" style="shape=partialRectangle;collapsible=0;dropTarget=0;pointerEvents=0;fillColor=none;top=0;left=0;bottom=0;right=0;points=[[0,0.5],[1,0.5]];portConstraint=eastwest;labelBackgroundColor=none;fontFamily=Helvetica;fontSize=12;fontColor=default;strokeColor=default;" parent="5NvtxKx6k78RyNqUAEc0-120" vertex="1">
                    <mxGeometry y="90" width="180" height="30" as="geometry"/>
                </mxCell>
                <mxCell id="5NvtxKx6k78RyNqUAEc0-125" value="" style="shape=partialRectangle;connectable=0;fillColor=none;top=0;left=0;bottom=0;right=0;editable=1;overflow=hidden;labelBackgroundColor=none;pointerEvents=0;fontFamily=Helvetica;fontSize=12;fontColor=default;strokeColor=default;" parent="5NvtxKx6k78RyNqUAEc0-124" vertex="1">
                    <mxGeometry width="30" height="30" as="geometry">
                        <mxRectangle width="30" height="30" as="alternateBounds"/>
                    </mxGeometry>
                </mxCell>
                <mxCell id="5NvtxKx6k78RyNqUAEc0-126" value="(char) au_name" style="shape=partialRectangle;connectable=0;top=0;left=0;bottom=0;right=0;align=left;spacingLeft=6;overflow=hidden;labelBackgroundColor=none;pointerEvents=0;fontFamily=Helvetica;fontSize=12;" parent="5NvtxKx6k78RyNqUAEc0-124" vertex="1">
                    <mxGeometry x="30" width="150" height="30" as="geometry">
                        <mxRectangle width="150" height="30" as="alternateBounds"/>
                    </mxGeometry>
                </mxCell>
                <mxCell id="5NvtxKx6k78RyNqUAEc0-130" value="" style="shape=partialRectangle;collapsible=0;dropTarget=0;pointerEvents=0;fillColor=none;top=0;left=0;bottom=0;right=0;points=[[0,0.5],[1,0.5]];portConstraint=eastwest;labelBackgroundColor=none;fontFamily=Helvetica;fontSize=12;fontColor=default;strokeColor=default;" parent="5NvtxKx6k78RyNqUAEc0-120" vertex="1">
                    <mxGeometry y="120" width="180" height="30" as="geometry"/>
                </mxCell>
                <mxCell id="5NvtxKx6k78RyNqUAEc0-131" value="" style="shape=partialRectangle;connectable=0;fillColor=none;top=0;left=0;bottom=0;right=0;editable=1;overflow=hidden;labelBackgroundColor=none;pointerEvents=0;fontFamily=Helvetica;fontSize=12;fontColor=default;strokeColor=default;" parent="5NvtxKx6k78RyNqUAEc0-130" vertex="1">
                    <mxGeometry width="30" height="30" as="geometry">
                        <mxRectangle width="30" height="30" as="alternateBounds"/>
                    </mxGeometry>
                </mxCell>
                <mxCell id="5NvtxKx6k78RyNqUAEc0-132" value="au_star" style="shape=partialRectangle;connectable=0;top=0;left=0;bottom=0;right=0;align=left;spacingLeft=6;overflow=hidden;labelBackgroundColor=none;pointerEvents=0;fontFamily=Helvetica;fontSize=12;" parent="5NvtxKx6k78RyNqUAEc0-130" vertex="1">
                    <mxGeometry x="30" width="150" height="30" as="geometry">
                        <mxRectangle width="150" height="30" as="alternateBounds"/>
                    </mxGeometry>
                </mxCell>
                <mxCell id="5NvtxKx6k78RyNqUAEc0-136" value="" style="edgeStyle=orthogonalEdgeStyle;fontSize=12;html=1;endArrow=ERoneToMany;startArrow=ERoneToMany;rounded=0;fontFamily=Helvetica;fontColor=default;curved=1;" parent="1" source="xDhQ3LMMEN892zh7dAkD-1" target="5NvtxKx6k78RyNqUAEc0-34" edge="1">
                    <mxGeometry width="100" height="100" relative="1" as="geometry">
                        <mxPoint x="200" y="240" as="sourcePoint"/>
                        <mxPoint x="300" y="140" as="targetPoint"/>
                    </mxGeometry>
                </mxCell>
                <mxCell id="5NvtxKx6k78RyNqUAEc0-156" style="edgeStyle=orthogonalEdgeStyle;curved=1;rounded=0;orthogonalLoop=1;jettySize=auto;html=1;fontFamily=Helvetica;fontSize=12;fontColor=default;endArrow=ERzeroToMany;endFill=0;startArrow=ERmandOne;startFill=0;" parent="1" source="5NvtxKx6k78RyNqUAEc0-138" target="5NvtxKx6k78RyNqUAEc0-153" edge="1">
                    <mxGeometry relative="1" as="geometry"/>
                </mxCell>
                <mxCell id="5NvtxKx6k78RyNqUAEc0-137" value="Category (Thể loại)" style="shape=table;startSize=30;container=1;collapsible=1;childLayout=tableLayout;fixedRows=1;rowLines=0;fontStyle=1;align=center;resizeLast=1;labelBackgroundColor=none;pointerEvents=0;fontFamily=Helvetica;fontSize=12;fontColor=default;strokeColor=default;fillColor=none;" parent="1" vertex="1">
                    <mxGeometry y="190" width="180" height="100" as="geometry"/>
                </mxCell>
                <mxCell id="5NvtxKx6k78RyNqUAEc0-138" value="" style="shape=partialRectangle;collapsible=0;dropTarget=0;pointerEvents=0;fillColor=none;top=0;left=0;bottom=1;right=0;points=[[0,0.5],[1,0.5]];portConstraint=eastwest;labelBackgroundColor=none;fontFamily=Helvetica;fontSize=12;fontColor=default;strokeColor=default;" parent="5NvtxKx6k78RyNqUAEc0-137" vertex="1">
                    <mxGeometry y="30" width="180" height="30" as="geometry"/>
                </mxCell>
                <mxCell id="5NvtxKx6k78RyNqUAEc0-139" value="PK" style="shape=partialRectangle;connectable=0;fillColor=none;top=0;left=0;bottom=0;right=0;fontStyle=1;overflow=hidden;labelBackgroundColor=none;pointerEvents=0;fontFamily=Helvetica;fontSize=12;fontColor=default;strokeColor=default;" parent="5NvtxKx6k78RyNqUAEc0-138" vertex="1">
                    <mxGeometry width="30" height="30" as="geometry">
                        <mxRectangle width="30" height="30" as="alternateBounds"/>
                    </mxGeometry>
                </mxCell>
                <mxCell id="5NvtxKx6k78RyNqUAEc0-140" value="catID" style="shape=partialRectangle;connectable=0;fillColor=none;top=0;left=0;bottom=0;right=0;align=left;spacingLeft=6;fontStyle=5;overflow=hidden;labelBackgroundColor=none;pointerEvents=0;fontFamily=Helvetica;fontSize=12;fontColor=default;strokeColor=default;" parent="5NvtxKx6k78RyNqUAEc0-138" vertex="1">
                    <mxGeometry x="30" width="150" height="30" as="geometry">
                        <mxRectangle width="150" height="30" as="alternateBounds"/>
                    </mxGeometry>
                </mxCell>
                <mxCell id="5NvtxKx6k78RyNqUAEc0-141" value="" style="shape=partialRectangle;collapsible=0;dropTarget=0;pointerEvents=0;fillColor=none;top=0;left=0;bottom=0;right=0;points=[[0,0.5],[1,0.5]];portConstraint=eastwest;labelBackgroundColor=none;fontFamily=Helvetica;fontSize=12;fontColor=default;strokeColor=default;" parent="5NvtxKx6k78RyNqUAEc0-137" vertex="1">
                    <mxGeometry y="60" width="180" height="30" as="geometry"/>
                </mxCell>
                <mxCell id="5NvtxKx6k78RyNqUAEc0-142" value="" style="shape=partialRectangle;connectable=0;fillColor=none;top=0;left=0;bottom=0;right=0;editable=1;overflow=hidden;labelBackgroundColor=none;pointerEvents=0;fontFamily=Helvetica;fontSize=12;fontColor=default;strokeColor=default;" parent="5NvtxKx6k78RyNqUAEc0-141" vertex="1">
                    <mxGeometry width="30" height="30" as="geometry">
                        <mxRectangle width="30" height="30" as="alternateBounds"/>
                    </mxGeometry>
                </mxCell>
                <mxCell id="5NvtxKx6k78RyNqUAEc0-143" value="(char) cat_name" style="shape=partialRectangle;connectable=0;fillColor=none;top=0;left=0;bottom=0;right=0;align=left;spacingLeft=6;overflow=hidden;labelBackgroundColor=none;pointerEvents=0;fontFamily=Helvetica;fontSize=12;fontColor=default;strokeColor=default;" parent="5NvtxKx6k78RyNqUAEc0-141" vertex="1">
                    <mxGeometry x="30" width="150" height="30" as="geometry">
                        <mxRectangle width="150" height="30" as="alternateBounds"/>
                    </mxGeometry>
                </mxCell>
                <mxCell id="5NvtxKx6k78RyNqUAEc0-170" style="edgeStyle=orthogonalEdgeStyle;curved=1;rounded=0;orthogonalLoop=1;jettySize=auto;html=1;fontFamily=Helvetica;fontSize=12;fontColor=default;startArrow=ERzeroToMany;startFill=0;endArrow=ERmandOne;endFill=0;" parent="1" source="5NvtxKx6k78RyNqUAEc0-161" target="5NvtxKx6k78RyNqUAEc0-31" edge="1">
                    <mxGeometry relative="1" as="geometry"/>
                </mxCell>
                <mxCell id="5NvtxKx6k78RyNqUAEc0-157" value="Order" style="shape=table;startSize=30;container=1;collapsible=1;childLayout=tableLayout;fixedRows=1;rowLines=0;fontStyle=1;align=center;resizeLast=1;labelBackgroundColor=none;pointerEvents=0;fontFamily=Helvetica;fontSize=12;fontColor=default;strokeColor=default;fillColor=none;" parent="1" vertex="1">
                    <mxGeometry y="-280" width="180" height="190" as="geometry"/>
                </mxCell>
                <mxCell id="5NvtxKx6k78RyNqUAEc0-158" value="" style="shape=partialRectangle;collapsible=0;dropTarget=0;pointerEvents=0;fillColor=none;top=0;left=0;bottom=1;right=0;points=[[0,0.5],[1,0.5]];portConstraint=eastwest;labelBackgroundColor=none;fontFamily=Helvetica;fontSize=12;fontColor=default;strokeColor=default;" parent="5NvtxKx6k78RyNqUAEc0-157" vertex="1">
                    <mxGeometry y="30" width="180" height="30" as="geometry"/>
                </mxCell>
                <mxCell id="5NvtxKx6k78RyNqUAEc0-159" value="PK" style="shape=partialRectangle;connectable=0;fillColor=none;top=0;left=0;bottom=0;right=0;fontStyle=1;overflow=hidden;labelBackgroundColor=none;pointerEvents=0;fontFamily=Helvetica;fontSize=12;fontColor=default;strokeColor=default;" parent="5NvtxKx6k78RyNqUAEc0-158" vertex="1">
                    <mxGeometry width="30" height="30" as="geometry">
                        <mxRectangle width="30" height="30" as="alternateBounds"/>
                    </mxGeometry>
                </mxCell>
                <mxCell id="5NvtxKx6k78RyNqUAEc0-160" value="oID" style="shape=partialRectangle;connectable=0;fillColor=none;top=0;left=0;bottom=0;right=0;align=left;spacingLeft=6;fontStyle=5;overflow=hidden;labelBackgroundColor=none;pointerEvents=0;fontFamily=Helvetica;fontSize=12;fontColor=default;strokeColor=default;" parent="5NvtxKx6k78RyNqUAEc0-158" vertex="1">
                    <mxGeometry x="30" width="150" height="30" as="geometry">
                        <mxRectangle width="150" height="30" as="alternateBounds"/>
                    </mxGeometry>
                </mxCell>
                <mxCell id="5NvtxKx6k78RyNqUAEc0-161" value="" style="shape=partialRectangle;collapsible=0;dropTarget=0;pointerEvents=0;fillColor=none;top=0;left=0;bottom=0;right=0;points=[[0,0.5],[1,0.5]];portConstraint=eastwest;labelBackgroundColor=none;fontFamily=Helvetica;fontSize=12;fontColor=default;strokeColor=default;" parent="5NvtxKx6k78RyNqUAEc0-157" vertex="1">
                    <mxGeometry y="60" width="180" height="30" as="geometry"/>
                </mxCell>
                <mxCell id="5NvtxKx6k78RyNqUAEc0-162" value="FK" style="shape=partialRectangle;connectable=0;fillColor=none;top=0;left=0;bottom=0;right=0;editable=1;overflow=hidden;labelBackgroundColor=none;pointerEvents=0;fontFamily=Helvetica;fontSize=12;fontColor=default;strokeColor=default;" parent="5NvtxKx6k78RyNqUAEc0-161" vertex="1">
                    <mxGeometry width="30" height="30" as="geometry">
                        <mxRectangle width="30" height="30" as="alternateBounds"/>
                    </mxGeometry>
                </mxCell>
                <mxCell id="5NvtxKx6k78RyNqUAEc0-163" value="pID" style="shape=partialRectangle;connectable=0;fillColor=#fff2cc;top=0;left=0;bottom=0;right=0;align=left;spacingLeft=6;overflow=hidden;labelBackgroundColor=none;pointerEvents=0;fontFamily=Helvetica;fontSize=12;strokeColor=#d6b656;" parent="5NvtxKx6k78RyNqUAEc0-161" vertex="1">
                    <mxGeometry x="30" width="150" height="30" as="geometry">
                        <mxRectangle width="150" height="30" as="alternateBounds"/>
                    </mxGeometry>
                </mxCell>
                <mxCell id="xDhQ3LMMEN892zh7dAkD-4" value="" style="shape=partialRectangle;collapsible=0;dropTarget=0;pointerEvents=0;fillColor=none;top=0;left=0;bottom=0;right=0;points=[[0,0.5],[1,0.5]];portConstraint=eastwest;labelBackgroundColor=none;fontFamily=Helvetica;fontSize=12;fontColor=default;strokeColor=default;" parent="5NvtxKx6k78RyNqUAEc0-157" vertex="1">
                    <mxGeometry y="90" width="180" height="30" as="geometry"/>
                </mxCell>
                <mxCell id="xDhQ3LMMEN892zh7dAkD-5" value="FK" style="shape=partialRectangle;connectable=0;fillColor=none;top=0;left=0;bottom=0;right=0;editable=1;overflow=hidden;labelBackgroundColor=none;pointerEvents=0;fontFamily=Helvetica;fontSize=12;fontColor=default;strokeColor=default;" parent="xDhQ3LMMEN892zh7dAkD-4" vertex="1">
                    <mxGeometry width="30" height="30" as="geometry">
                        <mxRectangle width="30" height="30" as="alternateBounds"/>
                    </mxGeometry>
                </mxCell>
                <mxCell id="xDhQ3LMMEN892zh7dAkD-6" value="iID" style="shape=partialRectangle;connectable=0;fillColor=#fff2cc;top=0;left=0;bottom=0;right=0;align=left;spacingLeft=6;overflow=hidden;labelBackgroundColor=none;pointerEvents=0;fontFamily=Helvetica;fontSize=12;strokeColor=#d6b656;" parent="xDhQ3LMMEN892zh7dAkD-4" vertex="1">
                    <mxGeometry x="30" width="150" height="30" as="geometry">
                        <mxRectangle width="150" height="30" as="alternateBounds"/>
                    </mxGeometry>
                </mxCell>
                <mxCell id="5NvtxKx6k78RyNqUAEc0-164" value="" style="shape=partialRectangle;collapsible=0;dropTarget=0;pointerEvents=0;fillColor=none;top=0;left=0;bottom=0;right=0;points=[[0,0.5],[1,0.5]];portConstraint=eastwest;labelBackgroundColor=none;fontFamily=Helvetica;fontSize=12;fontColor=default;strokeColor=default;" parent="5NvtxKx6k78RyNqUAEc0-157" vertex="1">
                    <mxGeometry y="120" width="180" height="30" as="geometry"/>
                </mxCell>
                <mxCell id="5NvtxKx6k78RyNqUAEc0-165" value="" style="shape=partialRectangle;connectable=0;fillColor=none;top=0;left=0;bottom=0;right=0;editable=1;overflow=hidden;labelBackgroundColor=none;pointerEvents=0;fontFamily=Helvetica;fontSize=12;fontColor=default;strokeColor=default;" parent="5NvtxKx6k78RyNqUAEc0-164" vertex="1">
                    <mxGeometry width="30" height="30" as="geometry">
                        <mxRectangle width="30" height="30" as="alternateBounds"/>
                    </mxGeometry>
                </mxCell>
                <mxCell id="5NvtxKx6k78RyNqUAEc0-166" value="(int) quantity" style="shape=partialRectangle;connectable=0;fillColor=none;top=0;left=0;bottom=0;right=0;align=left;spacingLeft=6;overflow=hidden;labelBackgroundColor=none;pointerEvents=0;fontFamily=Helvetica;fontSize=12;fontColor=default;strokeColor=default;" parent="5NvtxKx6k78RyNqUAEc0-164" vertex="1">
                    <mxGeometry x="30" width="150" height="30" as="geometry">
                        <mxRectangle width="150" height="30" as="alternateBounds"/>
                    </mxGeometry>
                </mxCell>
                <mxCell id="uKTpV5TkBBqyouTNL6bu-19" value="" style="shape=partialRectangle;collapsible=0;dropTarget=0;pointerEvents=0;fillColor=none;top=0;left=0;bottom=0;right=0;points=[[0,0.5],[1,0.5]];portConstraint=eastwest;labelBackgroundColor=none;fontFamily=Helvetica;fontSize=12;fontColor=default;strokeColor=default;" parent="5NvtxKx6k78RyNqUAEc0-157" vertex="1">
                    <mxGeometry y="150" width="180" height="30" as="geometry"/>
                </mxCell>
                <mxCell id="uKTpV5TkBBqyouTNL6bu-20" value="" style="shape=partialRectangle;connectable=0;fillColor=none;top=0;left=0;bottom=0;right=0;editable=1;overflow=hidden;labelBackgroundColor=none;pointerEvents=0;fontFamily=Helvetica;fontSize=12;fontColor=default;strokeColor=default;" parent="uKTpV5TkBBqyouTNL6bu-19" vertex="1">
                    <mxGeometry width="30" height="30" as="geometry">
                        <mxRectangle width="30" height="30" as="alternateBounds"/>
                    </mxGeometry>
                </mxCell>
                <mxCell id="uKTpV5TkBBqyouTNL6bu-21" value="(char) comment" style="shape=partialRectangle;connectable=0;fillColor=none;top=0;left=0;bottom=0;right=0;align=left;spacingLeft=6;overflow=hidden;labelBackgroundColor=none;pointerEvents=0;fontFamily=Helvetica;fontSize=12;fontColor=default;strokeColor=default;" parent="uKTpV5TkBBqyouTNL6bu-19" vertex="1">
                    <mxGeometry x="30" width="150" height="30" as="geometry">
                        <mxRectangle width="150" height="30" as="alternateBounds"/>
                    </mxGeometry>
                </mxCell>
                <mxCell id="5NvtxKx6k78RyNqUAEc0-184" style="edgeStyle=orthogonalEdgeStyle;curved=1;rounded=0;orthogonalLoop=1;jettySize=auto;html=1;fontFamily=Helvetica;fontSize=12;fontColor=default;startArrow=ERmandOne;startFill=0;endArrow=ERoneToMany;endFill=0;" parent="1" source="5NvtxKx6k78RyNqUAEc0-172" target="xDhQ3LMMEN892zh7dAkD-4" edge="1">
                    <mxGeometry relative="1" as="geometry"/>
                </mxCell>
                <mxCell id="5NvtxKx6k78RyNqUAEc0-171" value="Invoice (Hóa đơn)" style="shape=table;startSize=30;container=1;collapsible=1;childLayout=tableLayout;fixedRows=1;rowLines=0;fontStyle=1;align=center;resizeLast=1;labelBackgroundColor=none;pointerEvents=0;fontFamily=Helvetica;fontSize=12;fontColor=default;strokeColor=default;fillColor=none;" parent="1" vertex="1">
                    <mxGeometry x="240" y="-280" width="250" height="220" as="geometry"/>
                </mxCell>
                <mxCell id="5NvtxKx6k78RyNqUAEc0-172" value="" style="shape=partialRectangle;collapsible=0;dropTarget=0;pointerEvents=0;fillColor=none;top=0;left=0;bottom=1;right=0;points=[[0,0.5],[1,0.5]];portConstraint=eastwest;labelBackgroundColor=none;fontFamily=Helvetica;fontSize=12;fontColor=default;strokeColor=default;" parent="5NvtxKx6k78RyNqUAEc0-171" vertex="1">
                    <mxGeometry y="30" width="250" height="30" as="geometry"/>
                </mxCell>
                <mxCell id="5NvtxKx6k78RyNqUAEc0-173" value="PK" style="shape=partialRectangle;connectable=0;fillColor=none;top=0;left=0;bottom=0;right=0;fontStyle=1;overflow=hidden;labelBackgroundColor=none;pointerEvents=0;fontFamily=Helvetica;fontSize=12;fontColor=default;strokeColor=default;" parent="5NvtxKx6k78RyNqUAEc0-172" vertex="1">
                    <mxGeometry width="30" height="30" as="geometry">
                        <mxRectangle width="30" height="30" as="alternateBounds"/>
                    </mxGeometry>
                </mxCell>
                <mxCell id="5NvtxKx6k78RyNqUAEc0-174" value="iID" style="shape=partialRectangle;connectable=0;fillColor=none;top=0;left=0;bottom=0;right=0;align=left;spacingLeft=6;fontStyle=5;overflow=hidden;labelBackgroundColor=none;pointerEvents=0;fontFamily=Helvetica;fontSize=12;fontColor=default;strokeColor=default;" parent="5NvtxKx6k78RyNqUAEc0-172" vertex="1">
                    <mxGeometry x="30" width="220" height="30" as="geometry">
                        <mxRectangle width="220" height="30" as="alternateBounds"/>
                    </mxGeometry>
                </mxCell>
                <mxCell id="5NvtxKx6k78RyNqUAEc0-216" value="" style="shape=partialRectangle;collapsible=0;dropTarget=0;pointerEvents=0;fillColor=none;top=0;left=0;bottom=0;right=0;points=[[0,0.5],[1,0.5]];portConstraint=eastwest;labelBackgroundColor=none;fontFamily=Helvetica;fontSize=12;fontColor=default;strokeColor=default;" parent="5NvtxKx6k78RyNqUAEc0-171" vertex="1">
                    <mxGeometry y="60" width="250" height="30" as="geometry"/>
                </mxCell>
                <mxCell id="5NvtxKx6k78RyNqUAEc0-217" value="FK" style="shape=partialRectangle;connectable=0;fillColor=none;top=0;left=0;bottom=0;right=0;editable=1;overflow=hidden;labelBackgroundColor=none;pointerEvents=0;fontFamily=Helvetica;fontSize=12;fontColor=default;strokeColor=default;" parent="5NvtxKx6k78RyNqUAEc0-216" vertex="1">
                    <mxGeometry width="30" height="30" as="geometry">
                        <mxRectangle width="30" height="30" as="alternateBounds"/>
                    </mxGeometry>
                </mxCell>
                <mxCell id="5NvtxKx6k78RyNqUAEc0-218" value="cusID" style="shape=partialRectangle;connectable=0;fillColor=#fff2cc;top=0;left=0;bottom=0;right=0;align=left;spacingLeft=6;overflow=hidden;labelBackgroundColor=none;pointerEvents=0;fontFamily=Helvetica;fontSize=12;strokeColor=#d6b656;" parent="5NvtxKx6k78RyNqUAEc0-216" vertex="1">
                    <mxGeometry x="30" width="220" height="30" as="geometry">
                        <mxRectangle width="220" height="30" as="alternateBounds"/>
                    </mxGeometry>
                </mxCell>
                <mxCell id="xDhQ3LMMEN892zh7dAkD-7" value="" style="shape=partialRectangle;collapsible=0;dropTarget=0;pointerEvents=0;fillColor=none;top=0;left=0;bottom=0;right=0;points=[[0,0.5],[1,0.5]];portConstraint=eastwest;labelBackgroundColor=none;fontFamily=Helvetica;fontSize=12;fontColor=default;strokeColor=default;" parent="5NvtxKx6k78RyNqUAEc0-171" vertex="1">
                    <mxGeometry y="90" width="250" height="30" as="geometry"/>
                </mxCell>
                <mxCell id="xDhQ3LMMEN892zh7dAkD-8" value="" style="shape=partialRectangle;connectable=0;fillColor=none;top=0;left=0;bottom=0;right=0;editable=1;overflow=hidden;labelBackgroundColor=none;pointerEvents=0;fontFamily=Helvetica;fontSize=12;fontColor=default;strokeColor=default;" parent="xDhQ3LMMEN892zh7dAkD-7" vertex="1">
                    <mxGeometry width="30" height="30" as="geometry">
                        <mxRectangle width="30" height="30" as="alternateBounds"/>
                    </mxGeometry>
                </mxCell>
                <mxCell id="xDhQ3LMMEN892zh7dAkD-9" value="(date) date (created day)" style="shape=partialRectangle;connectable=0;top=0;left=0;bottom=0;right=0;align=left;spacingLeft=6;overflow=hidden;labelBackgroundColor=none;pointerEvents=0;fontFamily=Helvetica;fontSize=12;" parent="xDhQ3LMMEN892zh7dAkD-7" vertex="1">
                    <mxGeometry x="30" width="220" height="30" as="geometry">
                        <mxRectangle width="220" height="30" as="alternateBounds"/>
                    </mxGeometry>
                </mxCell>
                <mxCell id="uKTpV5TkBBqyouTNL6bu-7" value="" style="shape=partialRectangle;collapsible=0;dropTarget=0;pointerEvents=0;fillColor=none;top=0;left=0;bottom=0;right=0;points=[[0,0.5],[1,0.5]];portConstraint=eastwest;labelBackgroundColor=none;fontFamily=Helvetica;fontSize=12;fontColor=default;strokeColor=default;" parent="5NvtxKx6k78RyNqUAEc0-171" vertex="1">
                    <mxGeometry y="120" width="250" height="30" as="geometry"/>
                </mxCell>
                <mxCell id="uKTpV5TkBBqyouTNL6bu-8" value="" style="shape=partialRectangle;connectable=0;fillColor=none;top=0;left=0;bottom=0;right=0;editable=1;overflow=hidden;labelBackgroundColor=none;pointerEvents=0;fontFamily=Helvetica;fontSize=12;fontColor=default;strokeColor=default;" parent="uKTpV5TkBBqyouTNL6bu-7" vertex="1">
                    <mxGeometry width="30" height="30" as="geometry">
                        <mxRectangle width="30" height="30" as="alternateBounds"/>
                    </mxGeometry>
                </mxCell>
                <mxCell id="uKTpV5TkBBqyouTNL6bu-9" value="(date) date_checkout (checkout day)" style="shape=partialRectangle;connectable=0;top=0;left=0;bottom=0;right=0;align=left;spacingLeft=6;overflow=hidden;labelBackgroundColor=none;pointerEvents=0;fontFamily=Helvetica;fontSize=12;" parent="uKTpV5TkBBqyouTNL6bu-7" vertex="1">
                    <mxGeometry x="30" width="220" height="30" as="geometry">
                        <mxRectangle width="220" height="30" as="alternateBounds"/>
                    </mxGeometry>
                </mxCell>
                <mxCell id="uKTpV5TkBBqyouTNL6bu-13" value="" style="shape=partialRectangle;collapsible=0;dropTarget=0;pointerEvents=0;fillColor=none;top=0;left=0;bottom=0;right=0;points=[[0,0.5],[1,0.5]];portConstraint=eastwest;labelBackgroundColor=none;fontFamily=Helvetica;fontSize=12;fontColor=default;strokeColor=default;" parent="5NvtxKx6k78RyNqUAEc0-171" vertex="1">
                    <mxGeometry y="150" width="250" height="30" as="geometry"/>
                </mxCell>
                <mxCell id="uKTpV5TkBBqyouTNL6bu-14" value="" style="shape=partialRectangle;connectable=0;fillColor=none;top=0;left=0;bottom=0;right=0;editable=1;overflow=hidden;labelBackgroundColor=none;pointerEvents=0;fontFamily=Helvetica;fontSize=12;fontColor=default;strokeColor=default;" parent="uKTpV5TkBBqyouTNL6bu-13" vertex="1">
                    <mxGeometry width="30" height="30" as="geometry">
                        <mxRectangle width="30" height="30" as="alternateBounds"/>
                    </mxGeometry>
                </mxCell>
                <mxCell id="uKTpV5TkBBqyouTNL6bu-15" value="(boolean) place_status" style="shape=partialRectangle;connectable=0;top=0;left=0;bottom=0;right=0;align=left;spacingLeft=6;overflow=hidden;labelBackgroundColor=none;pointerEvents=0;fontFamily=Helvetica;fontSize=12;" parent="uKTpV5TkBBqyouTNL6bu-13" vertex="1">
                    <mxGeometry x="30" width="220" height="30" as="geometry">
                        <mxRectangle width="220" height="30" as="alternateBounds"/>
                    </mxGeometry>
                </mxCell>
                <mxCell id="uKTpV5TkBBqyouTNL6bu-16" value="" style="shape=partialRectangle;collapsible=0;dropTarget=0;pointerEvents=0;fillColor=none;top=0;left=0;bottom=0;right=0;points=[[0,0.5],[1,0.5]];portConstraint=eastwest;labelBackgroundColor=none;fontFamily=Helvetica;fontSize=12;fontColor=default;strokeColor=default;" parent="5NvtxKx6k78RyNqUAEc0-171" vertex="1">
                    <mxGeometry y="180" width="250" height="30" as="geometry"/>
                </mxCell>
                <mxCell id="uKTpV5TkBBqyouTNL6bu-17" value="" style="shape=partialRectangle;connectable=0;fillColor=none;top=0;left=0;bottom=0;right=0;editable=1;overflow=hidden;labelBackgroundColor=none;pointerEvents=0;fontFamily=Helvetica;fontSize=12;fontColor=default;strokeColor=default;" parent="uKTpV5TkBBqyouTNL6bu-16" vertex="1">
                    <mxGeometry width="30" height="30" as="geometry">
                        <mxRectangle width="30" height="30" as="alternateBounds"/>
                    </mxGeometry>
                </mxCell>
                <mxCell id="uKTpV5TkBBqyouTNL6bu-18" value="(char) ship_addr" style="shape=partialRectangle;connectable=0;top=0;left=0;bottom=0;right=0;align=left;spacingLeft=6;overflow=hidden;labelBackgroundColor=none;pointerEvents=0;fontFamily=Helvetica;fontSize=12;" parent="uKTpV5TkBBqyouTNL6bu-16" vertex="1">
                    <mxGeometry x="30" width="220" height="30" as="geometry">
                        <mxRectangle width="220" height="30" as="alternateBounds"/>
                    </mxGeometry>
                </mxCell>
                <mxCell id="5NvtxKx6k78RyNqUAEc0-185" value="Customer" style="shape=table;startSize=30;container=1;collapsible=1;childLayout=tableLayout;fixedRows=1;rowLines=0;fontStyle=1;align=center;resizeLast=1;labelBackgroundColor=none;pointerEvents=0;fontFamily=Helvetica;fontSize=12;fontColor=default;strokeColor=default;fillColor=none;" parent="1" vertex="1">
                    <mxGeometry x="540" y="-280" width="180" height="190" as="geometry"/>
                </mxCell>
                <mxCell id="5NvtxKx6k78RyNqUAEc0-186" value="" style="shape=partialRectangle;collapsible=0;dropTarget=0;pointerEvents=0;fillColor=none;top=0;left=0;bottom=1;right=0;points=[[0,0.5],[1,0.5]];portConstraint=eastwest;labelBackgroundColor=none;fontFamily=Helvetica;fontSize=12;fontColor=default;strokeColor=default;" parent="5NvtxKx6k78RyNqUAEc0-185" vertex="1">
                    <mxGeometry y="30" width="180" height="30" as="geometry"/>
                </mxCell>
                <mxCell id="5NvtxKx6k78RyNqUAEc0-187" value="PK" style="shape=partialRectangle;connectable=0;fillColor=none;top=0;left=0;bottom=0;right=0;fontStyle=1;overflow=hidden;labelBackgroundColor=none;pointerEvents=0;fontFamily=Helvetica;fontSize=12;fontColor=default;strokeColor=default;" parent="5NvtxKx6k78RyNqUAEc0-186" vertex="1">
                    <mxGeometry width="30" height="30" as="geometry">
                        <mxRectangle width="30" height="30" as="alternateBounds"/>
                    </mxGeometry>
                </mxCell>
                <mxCell id="5NvtxKx6k78RyNqUAEc0-188" value="cusID" style="shape=partialRectangle;connectable=0;fillColor=none;top=0;left=0;bottom=0;right=0;align=left;spacingLeft=6;fontStyle=5;overflow=hidden;labelBackgroundColor=none;pointerEvents=0;fontFamily=Helvetica;fontSize=12;fontColor=default;strokeColor=default;" parent="5NvtxKx6k78RyNqUAEc0-186" vertex="1">
                    <mxGeometry x="30" width="150" height="30" as="geometry">
                        <mxRectangle width="150" height="30" as="alternateBounds"/>
                    </mxGeometry>
                </mxCell>
                <mxCell id="uKTpV5TkBBqyouTNL6bu-4" value="" style="shape=partialRectangle;collapsible=0;dropTarget=0;pointerEvents=0;fillColor=none;top=0;left=0;bottom=0;right=0;points=[[0,0.5],[1,0.5]];portConstraint=eastwest;labelBackgroundColor=none;fontFamily=Helvetica;fontSize=12;fontColor=default;strokeColor=default;" parent="5NvtxKx6k78RyNqUAEc0-185" vertex="1">
                    <mxGeometry y="60" width="180" height="30" as="geometry"/>
                </mxCell>
                <mxCell id="uKTpV5TkBBqyouTNL6bu-5" value="PK" style="shape=partialRectangle;connectable=0;fillColor=none;top=0;left=0;bottom=0;right=0;editable=1;overflow=hidden;labelBackgroundColor=none;pointerEvents=0;fontFamily=Helvetica;fontSize=12;fontColor=default;strokeColor=default;" parent="uKTpV5TkBBqyouTNL6bu-4" vertex="1">
                    <mxGeometry width="30" height="30" as="geometry">
                        <mxRectangle width="30" height="30" as="alternateBounds"/>
                    </mxGeometry>
                </mxCell>
                <mxCell id="uKTpV5TkBBqyouTNL6bu-6" value="user" style="shape=partialRectangle;connectable=0;fillColor=none;top=0;left=0;bottom=0;right=0;align=left;spacingLeft=6;overflow=hidden;labelBackgroundColor=none;pointerEvents=0;fontFamily=Helvetica;fontSize=12;fontColor=default;strokeColor=default;" parent="uKTpV5TkBBqyouTNL6bu-4" vertex="1">
                    <mxGeometry x="30" width="150" height="30" as="geometry">
                        <mxRectangle width="150" height="30" as="alternateBounds"/>
                    </mxGeometry>
                </mxCell>
                <mxCell id="5NvtxKx6k78RyNqUAEc0-189" value="" style="shape=partialRectangle;collapsible=0;dropTarget=0;pointerEvents=0;fillColor=none;top=0;left=0;bottom=0;right=0;points=[[0,0.5],[1,0.5]];portConstraint=eastwest;labelBackgroundColor=none;fontFamily=Helvetica;fontSize=12;fontColor=default;strokeColor=default;" parent="5NvtxKx6k78RyNqUAEc0-185" vertex="1">
                    <mxGeometry y="90" width="180" height="30" as="geometry"/>
                </mxCell>
                <mxCell id="5NvtxKx6k78RyNqUAEc0-190" value="" style="shape=partialRectangle;connectable=0;fillColor=none;top=0;left=0;bottom=0;right=0;editable=1;overflow=hidden;labelBackgroundColor=none;pointerEvents=0;fontFamily=Helvetica;fontSize=12;fontColor=default;strokeColor=default;" parent="5NvtxKx6k78RyNqUAEc0-189" vertex="1">
                    <mxGeometry width="30" height="30" as="geometry">
                        <mxRectangle width="30" height="30" as="alternateBounds"/>
                    </mxGeometry>
                </mxCell>
                <mxCell id="5NvtxKx6k78RyNqUAEc0-191" value="(char) cus_name" style="shape=partialRectangle;connectable=0;fillColor=none;top=0;left=0;bottom=0;right=0;align=left;spacingLeft=6;overflow=hidden;labelBackgroundColor=none;pointerEvents=0;fontFamily=Helvetica;fontSize=12;fontColor=default;strokeColor=default;" parent="5NvtxKx6k78RyNqUAEc0-189" vertex="1">
                    <mxGeometry x="30" width="150" height="30" as="geometry">
                        <mxRectangle width="150" height="30" as="alternateBounds"/>
                    </mxGeometry>
                </mxCell>
                <mxCell id="5NvtxKx6k78RyNqUAEc0-207" value="" style="shape=partialRectangle;collapsible=0;dropTarget=0;pointerEvents=0;fillColor=none;top=0;left=0;bottom=0;right=0;points=[[0,0.5],[1,0.5]];portConstraint=eastwest;labelBackgroundColor=none;fontFamily=Helvetica;fontSize=12;fontColor=default;strokeColor=default;" parent="5NvtxKx6k78RyNqUAEc0-185" vertex="1">
                    <mxGeometry y="120" width="180" height="30" as="geometry"/>
                </mxCell>
                <mxCell id="5NvtxKx6k78RyNqUAEc0-208" value="" style="shape=partialRectangle;connectable=0;fillColor=none;top=0;left=0;bottom=0;right=0;editable=1;overflow=hidden;labelBackgroundColor=none;pointerEvents=0;fontFamily=Helvetica;fontSize=12;fontColor=default;strokeColor=default;" parent="5NvtxKx6k78RyNqUAEc0-207" vertex="1">
                    <mxGeometry width="30" height="30" as="geometry">
                        <mxRectangle width="30" height="30" as="alternateBounds"/>
                    </mxGeometry>
                </mxCell>
                <mxCell id="5NvtxKx6k78RyNqUAEc0-209" value="(char) cus_addr" style="shape=partialRectangle;connectable=0;fillColor=none;top=0;left=0;bottom=0;right=0;align=left;spacingLeft=6;overflow=hidden;labelBackgroundColor=none;pointerEvents=0;fontFamily=Helvetica;fontSize=12;fontColor=default;strokeColor=default;" parent="5NvtxKx6k78RyNqUAEc0-207" vertex="1">
                    <mxGeometry x="30" width="150" height="30" as="geometry">
                        <mxRectangle width="150" height="30" as="alternateBounds"/>
                    </mxGeometry>
                </mxCell>
                <mxCell id="5NvtxKx6k78RyNqUAEc0-210" value="" style="shape=partialRectangle;collapsible=0;dropTarget=0;pointerEvents=0;fillColor=none;top=0;left=0;bottom=0;right=0;points=[[0,0.5],[1,0.5]];portConstraint=eastwest;labelBackgroundColor=none;fontFamily=Helvetica;fontSize=12;fontColor=default;strokeColor=default;" parent="5NvtxKx6k78RyNqUAEc0-185" vertex="1">
                    <mxGeometry y="150" width="180" height="30" as="geometry"/>
                </mxCell>
                <mxCell id="5NvtxKx6k78RyNqUAEc0-211" value="" style="shape=partialRectangle;connectable=0;fillColor=none;top=0;left=0;bottom=0;right=0;editable=1;overflow=hidden;labelBackgroundColor=none;pointerEvents=0;fontFamily=Helvetica;fontSize=12;fontColor=default;strokeColor=default;" parent="5NvtxKx6k78RyNqUAEc0-210" vertex="1">
                    <mxGeometry width="30" height="30" as="geometry">
                        <mxRectangle width="30" height="30" as="alternateBounds"/>
                    </mxGeometry>
                </mxCell>
                <mxCell id="5NvtxKx6k78RyNqUAEc0-212" value="(char) cus_phone" style="shape=partialRectangle;connectable=0;fillColor=none;top=0;left=0;bottom=0;right=0;align=left;spacingLeft=6;overflow=hidden;labelBackgroundColor=none;pointerEvents=0;fontFamily=Helvetica;fontSize=12;fontColor=default;strokeColor=default;" parent="5NvtxKx6k78RyNqUAEc0-210" vertex="1">
                    <mxGeometry x="30" width="150" height="30" as="geometry">
                        <mxRectangle width="150" height="30" as="alternateBounds"/>
                    </mxGeometry>
                </mxCell>
                <mxCell id="5NvtxKx6k78RyNqUAEc0-219" style="edgeStyle=orthogonalEdgeStyle;curved=1;rounded=0;orthogonalLoop=1;jettySize=auto;html=1;fontFamily=Helvetica;fontSize=12;fontColor=default;startArrow=ERmandOne;startFill=0;endArrow=ERzeroToMany;endFill=0;" parent="1" source="5NvtxKx6k78RyNqUAEc0-186" target="5NvtxKx6k78RyNqUAEc0-216" edge="1">
                    <mxGeometry relative="1" as="geometry"/>
                </mxCell>
                <mxCell id="rFYv2BoaKUARyBG-sfRX-14" style="edgeStyle=orthogonalEdgeStyle;rounded=0;orthogonalLoop=1;jettySize=auto;html=1;startArrow=ERmandOne;startFill=0;endArrow=ERmandOne;endFill=0;" parent="1" source="rFYv2BoaKUARyBG-sfRX-1" target="uKTpV5TkBBqyouTNL6bu-4" edge="1">
                    <mxGeometry relative="1" as="geometry"/>
                </mxCell>
                <mxCell id="rFYv2BoaKUARyBG-sfRX-1" value="User (Django)" style="shape=table;startSize=30;container=1;collapsible=1;childLayout=tableLayout;fixedRows=1;rowLines=0;fontStyle=1;align=center;resizeLast=1;" parent="1" vertex="1">
                    <mxGeometry x="650" y="-70" width="180" height="160" as="geometry"/>
                </mxCell>
                <mxCell id="rFYv2BoaKUARyBG-sfRX-2" value="" style="shape=partialRectangle;collapsible=0;dropTarget=0;pointerEvents=0;fillColor=none;top=0;left=0;bottom=1;right=0;points=[[0,0.5],[1,0.5]];portConstraint=eastwest;" parent="rFYv2BoaKUARyBG-sfRX-1" vertex="1">
                    <mxGeometry y="30" width="180" height="30" as="geometry"/>
                </mxCell>
                <mxCell id="rFYv2BoaKUARyBG-sfRX-3" value="PK" style="shape=partialRectangle;connectable=0;fillColor=none;top=0;left=0;bottom=0;right=0;fontStyle=1;overflow=hidden;" parent="rFYv2BoaKUARyBG-sfRX-2" vertex="1">
                    <mxGeometry width="30" height="30" as="geometry">
                        <mxRectangle width="30" height="30" as="alternateBounds"/>
                    </mxGeometry>
                </mxCell>
                <mxCell id="rFYv2BoaKUARyBG-sfRX-4" value="UniqueID" style="shape=partialRectangle;connectable=0;fillColor=none;top=0;left=0;bottom=0;right=0;align=left;spacingLeft=6;fontStyle=5;overflow=hidden;" parent="rFYv2BoaKUARyBG-sfRX-2" vertex="1">
                    <mxGeometry x="30" width="150" height="30" as="geometry">
                        <mxRectangle width="150" height="30" as="alternateBounds"/>
                    </mxGeometry>
                </mxCell>
                <mxCell id="rFYv2BoaKUARyBG-sfRX-5" value="" style="shape=partialRectangle;collapsible=0;dropTarget=0;pointerEvents=0;fillColor=none;top=0;left=0;bottom=0;right=0;points=[[0,0.5],[1,0.5]];portConstraint=eastwest;" parent="rFYv2BoaKUARyBG-sfRX-1" vertex="1">
                    <mxGeometry y="60" width="180" height="30" as="geometry"/>
                </mxCell>
                <mxCell id="rFYv2BoaKUARyBG-sfRX-6" value="" style="shape=partialRectangle;connectable=0;fillColor=none;top=0;left=0;bottom=0;right=0;editable=1;overflow=hidden;" parent="rFYv2BoaKUARyBG-sfRX-5" vertex="1">
                    <mxGeometry width="30" height="30" as="geometry">
                        <mxRectangle width="30" height="30" as="alternateBounds"/>
                    </mxGeometry>
                </mxCell>
                <mxCell id="rFYv2BoaKUARyBG-sfRX-7" value="username" style="shape=partialRectangle;connectable=0;fillColor=none;top=0;left=0;bottom=0;right=0;align=left;spacingLeft=6;overflow=hidden;" parent="rFYv2BoaKUARyBG-sfRX-5" vertex="1">
                    <mxGeometry x="30" width="150" height="30" as="geometry">
                        <mxRectangle width="150" height="30" as="alternateBounds"/>
                    </mxGeometry>
                </mxCell>
                <mxCell id="rFYv2BoaKUARyBG-sfRX-8" value="" style="shape=partialRectangle;collapsible=0;dropTarget=0;pointerEvents=0;fillColor=none;top=0;left=0;bottom=0;right=0;points=[[0,0.5],[1,0.5]];portConstraint=eastwest;" parent="rFYv2BoaKUARyBG-sfRX-1" vertex="1">
                    <mxGeometry y="90" width="180" height="30" as="geometry"/>
                </mxCell>
                <mxCell id="rFYv2BoaKUARyBG-sfRX-9" value="" style="shape=partialRectangle;connectable=0;fillColor=none;top=0;left=0;bottom=0;right=0;editable=1;overflow=hidden;" parent="rFYv2BoaKUARyBG-sfRX-8" vertex="1">
                    <mxGeometry width="30" height="30" as="geometry">
                        <mxRectangle width="30" height="30" as="alternateBounds"/>
                    </mxGeometry>
                </mxCell>
                <mxCell id="rFYv2BoaKUARyBG-sfRX-10" value="password" style="shape=partialRectangle;connectable=0;fillColor=none;top=0;left=0;bottom=0;right=0;align=left;spacingLeft=6;overflow=hidden;" parent="rFYv2BoaKUARyBG-sfRX-8" vertex="1">
                    <mxGeometry x="30" width="150" height="30" as="geometry">
                        <mxRectangle width="150" height="30" as="alternateBounds"/>
                    </mxGeometry>
                </mxCell>
                <mxCell id="rFYv2BoaKUARyBG-sfRX-11" value="" style="shape=partialRectangle;collapsible=0;dropTarget=0;pointerEvents=0;fillColor=none;top=0;left=0;bottom=0;right=0;points=[[0,0.5],[1,0.5]];portConstraint=eastwest;" parent="rFYv2BoaKUARyBG-sfRX-1" vertex="1">
                    <mxGeometry y="120" width="180" height="30" as="geometry"/>
                </mxCell>
                <mxCell id="rFYv2BoaKUARyBG-sfRX-12" value="" style="shape=partialRectangle;connectable=0;fillColor=none;top=0;left=0;bottom=0;right=0;editable=1;overflow=hidden;" parent="rFYv2BoaKUARyBG-sfRX-11" vertex="1">
                    <mxGeometry width="30" height="30" as="geometry">
                        <mxRectangle width="30" height="30" as="alternateBounds"/>
                    </mxGeometry>
                </mxCell>
                <mxCell id="rFYv2BoaKUARyBG-sfRX-13" value="email" style="shape=partialRectangle;connectable=0;fillColor=none;top=0;left=0;bottom=0;right=0;align=left;spacingLeft=6;overflow=hidden;" parent="rFYv2BoaKUARyBG-sfRX-11" vertex="1">
                    <mxGeometry x="30" width="150" height="30" as="geometry">
                        <mxRectangle width="150" height="30" as="alternateBounds"/>
                    </mxGeometry>
                </mxCell>
            </root>
        </mxGraphModel>
    </diagram>
</mxfile>